<mxfile host="65bd71144e">
    <diagram id="6Q3iEzXpPUAbNsH2uLPI" name="Page-2">
        <mxGraphModel dx="970" dy="617" grid="1" gridSize="10" guides="1" tooltips="1" connect="1" arrows="1" fold="1" page="1" pageScale="1" pageWidth="827" pageHeight="1169" math="0" shadow="0">
            <root>
                <mxCell id="lMIlnGdYnDpF7HeIdtWw-0"/>
                <mxCell id="lMIlnGdYnDpF7HeIdtWw-1" parent="lMIlnGdYnDpF7HeIdtWw-0"/>
                <mxCell id="McbLI3HBzR2j_qkJWbVL-0" value="Début" style="ellipse;whiteSpace=wrap;html=1;" parent="lMIlnGdYnDpF7HeIdtWw-1" vertex="1">
                    <mxGeometry x="280" y="20" width="120" height="80" as="geometry"/>
                </mxCell>
                <mxCell id="McbLI3HBzR2j_qkJWbVL-1" style="edgeStyle=none;html=1;exitX=1;exitY=0.5;exitDx=0;exitDy=0;entryX=0;entryY=0.5;entryDx=0;entryDy=0;" parent="lMIlnGdYnDpF7HeIdtWw-1" source="McbLI3HBzR2j_qkJWbVL-2" target="McbLI3HBzR2j_qkJWbVL-8" edge="1">
                    <mxGeometry relative="1" as="geometry"/>
                </mxCell>
                <mxCell id="McbLI3HBzR2j_qkJWbVL-2" value="La recherche équivaut à un&lt;br&gt;éléments&amp;nbsp; ?" style="rhombus;whiteSpace=wrap;html=1;" parent="lMIlnGdYnDpF7HeIdtWw-1" vertex="1">
                    <mxGeometry x="240" y="260" width="200" height="120" as="geometry"/>
                </mxCell>
                <mxCell id="McbLI3HBzR2j_qkJWbVL-3" value="N = x" style="rounded=0;whiteSpace=wrap;html=1;" parent="lMIlnGdYnDpF7HeIdtWw-1" vertex="1">
                    <mxGeometry x="280" y="140" width="120" height="60" as="geometry"/>
                </mxCell>
                <mxCell id="McbLI3HBzR2j_qkJWbVL-4" value="" style="endArrow=classic;html=1;exitX=0.5;exitY=1;exitDx=0;exitDy=0;entryX=0.5;entryY=0;entryDx=0;entryDy=0;" parent="lMIlnGdYnDpF7HeIdtWw-1" source="McbLI3HBzR2j_qkJWbVL-0" edge="1">
                    <mxGeometry width="50" height="50" relative="1" as="geometry">
                        <mxPoint x="380" y="410" as="sourcePoint"/>
                        <mxPoint x="340" y="140" as="targetPoint"/>
                    </mxGeometry>
                </mxCell>
                <mxCell id="McbLI3HBzR2j_qkJWbVL-5" value="" style="endArrow=classic;html=1;exitX=0.5;exitY=1;exitDx=0;exitDy=0;entryX=0.5;entryY=0;entryDx=0;entryDy=0;" parent="lMIlnGdYnDpF7HeIdtWw-1" source="McbLI3HBzR2j_qkJWbVL-2" target="McbLI3HBzR2j_qkJWbVL-9" edge="1">
                    <mxGeometry width="50" height="50" relative="1" as="geometry">
                        <mxPoint x="380" y="480" as="sourcePoint"/>
                        <mxPoint x="340" y="390" as="targetPoint"/>
                    </mxGeometry>
                </mxCell>
                <mxCell id="McbLI3HBzR2j_qkJWbVL-6" value="" style="endArrow=classic;html=1;exitX=0.5;exitY=1;exitDx=0;exitDy=0;entryX=0.5;entryY=0;entryDx=0;entryDy=0;" parent="lMIlnGdYnDpF7HeIdtWw-1" source="McbLI3HBzR2j_qkJWbVL-3" target="McbLI3HBzR2j_qkJWbVL-2" edge="1">
                    <mxGeometry width="50" height="50" relative="1" as="geometry">
                        <mxPoint x="380" y="80" as="sourcePoint"/>
                        <mxPoint x="430" y="30" as="targetPoint"/>
                    </mxGeometry>
                </mxCell>
                <mxCell id="McbLI3HBzR2j_qkJWbVL-7" style="edgeStyle=none;html=1;exitX=0.5;exitY=0;exitDx=0;exitDy=0;" parent="lMIlnGdYnDpF7HeIdtWw-1" source="McbLI3HBzR2j_qkJWbVL-8" edge="1">
                    <mxGeometry relative="1" as="geometry">
                        <mxPoint x="340" y="230" as="targetPoint"/>
                        <Array as="points">
                            <mxPoint x="560" y="230"/>
                        </Array>
                    </mxGeometry>
                </mxCell>
                <mxCell id="McbLI3HBzR2j_qkJWbVL-8" value="N = N - 1" style="rounded=0;whiteSpace=wrap;html=1;" parent="lMIlnGdYnDpF7HeIdtWw-1" vertex="1">
                    <mxGeometry x="500" y="290" width="120" height="60" as="geometry"/>
                </mxCell>
                <mxCell id="McbLI3HBzR2j_qkJWbVL-9" value="FIN" style="ellipse;whiteSpace=wrap;html=1;" parent="lMIlnGdYnDpF7HeIdtWw-1" vertex="1">
                    <mxGeometry x="280" y="420" width="120" height="80" as="geometry"/>
                </mxCell>
                <mxCell id="mjRJHleZGtBRida2pSMI-0" value="Algorigramme d'une boucle for" style="text;html=1;resizable=0;autosize=1;align=center;verticalAlign=middle;points=[];fillColor=none;strokeColor=none;rounded=0;" parent="lMIlnGdYnDpF7HeIdtWw-1" vertex="1">
                    <mxGeometry x="65" y="20" width="180" height="20" as="geometry"/>
                </mxCell>
            </root>
        </mxGraphModel>
    </diagram>
</mxfile>